# xmcd CD database file
#
# Track frame offsets:
#	150
#	21657
#	49462
#	71440
#	93845
#	113355
#	136947
#	158157
#	182375
#	202922
#
# Disc length: 3076 seconds
#
# Revision: 0
# Processed by: cddbd v1.5PL3 Copyright (c) Steve Scherf et al.
# Submitted via: CDex 1.51
#
DISCID=7c0c020a
DTITLE=久野かおり - Rose
DYEAR=1991
DGENRE=Pop
TTITLE0=毎日がバレンタイン
TTITLE1=心　奪われて
TTITLE2=ため息はボサノヴァ色
TTITLE3=Love In The Mist
TTITLE4=星くずのプログラム
TTITLE5=空という永遠
TTITLE6=Don't Be Afraid
TTITLE7=Up To Date
TTITLE8=Like A Movie Star
TTITLE9=Love Forever
EXTD=YEAR: 1991
EXTT0=
EXTT1=
EXTT2=
EXTT3=
EXTT4=
EXTT5=
EXTT6=
EXTT7=
EXTT8=
EXTT9=
PLAYORDER=
